<svg xmlns="http://www.w3.org/2000/svg" width="1024" height="1024" viewBox="0 0 1024 1024">
  <defs>
    <radialGradient id="bg" cx="50%" cy="50%" r="70%">
      <stop offset="0%" stop-color="#1a1330"/>
      <stop offset="60%" stop-color="#0d1022"/>
      <stop offset="100%" stop-color="#05070f"/>
    </radialGradient>
    <filter id="blur"><feGaussianBlur stdDeviation="6"/></filter>
  </defs>
  <rect width="1024" height="1024" fill="url(#bg)"/>

  <g opacity="0.35" filter="url(#blur)">
    <circle cx="250" cy="260" r="130" fill="#712bff"/>
    <circle cx="760" cy="340" r="150" fill="#00cfff"/>
    <circle cx="500" cy="760" r="160" fill="#2458ff"/>
  </g>

  <g fill="none" stroke-linecap="round">
    <circle cx="512" cy="512" r="230" stroke="#3ce7ff" stroke-opacity="0.6" stroke-width="4"/>
    <circle cx="512" cy="512" r="305" stroke="#a15eff" stroke-opacity="0.5" stroke-width="3"/>
    <circle cx="512" cy="512" r="372" stroke="#39d0f0" stroke-opacity="0.35" stroke-width="2"/>
  </g>

  <g stroke="#8cf4ff" stroke-opacity="0.5" fill="#66f0ff" fill-opacity="0.25">
    <polygon points="164,516 192,488 202,530"/>
    <polygon points="228,356 250,330 264,372"/>
    <polygon points="355,228 384,208 396,252"/>
    <polygon points="520,162 548,146 560,188"/>
    <polygon points="694,210 724,194 734,238"/>
    <polygon points="820,336 848,314 860,356"/>
    <polygon points="874,510 904,486 914,528"/>
    <polygon points="836,682 866,658 876,700"/>
    <polygon points="710,812 740,792 752,836"/>
    <polygon points="536,864 564,848 574,892"/>
    <polygon points="360,824 390,804 400,846"/>
    <polygon points="226,696 252,670 266,712"/>
  </g>

  <g>
    <circle cx="512" cy="512" r="190" fill="#3de6ff" fill-opacity="0.08"/>
    <circle cx="512" cy="512" r="130" fill="#3de6ff" fill-opacity="0.12"/>
  </g>

  <!-- Aggressive prime mark -->
  <g transform="translate(512 512)">
    <polygon points="0,-130 112,-42 70,118 -70,118 -112,-42" fill="#13233f" stroke="#aaf7ff" stroke-width="7"/>
    <polygon points="0,-70 58,-22 36,56 -36,56 -58,-22" fill="#1f3f6d" stroke="#7beeff" stroke-width="3"/>
    <circle cx="0" cy="0" r="28" fill="#ffbe67" stroke="#ffe7be" stroke-width="3"/>
    <line x1="-78" y1="-18" x2="-138" y2="-36" stroke="#7beeff" stroke-width="5"/>
    <line x1="78" y1="-18" x2="138" y2="-36" stroke="#7beeff" stroke-width="5"/>
    <line x1="0" y1="-95" x2="0" y2="-160" stroke="#7beeff" stroke-width="6"/>
  </g>

  <g fill="#9ef6ff">
    <circle cx="512" cy="207" r="9"/><circle cx="674" cy="255" r="9"/><circle cx="792" cy="380" r="9"/>
    <circle cx="816" cy="548" r="9"/><circle cx="743" cy="700" r="9"/><circle cx="603" cy="799" r="9"/>
    <circle cx="426" cy="810" r="9"/><circle cx="286" cy="739" r="9"/><circle cx="208" cy="598" r="9"/>
    <circle cx="208" cy="427" r="9"/><circle cx="286" cy="286" r="9"/><circle cx="426" cy="214" r="9"/>
  </g>

  <rect width="1024" height="1024" fill="none" stroke="#000" stroke-opacity="0.3" stroke-width="42"/>
</svg>